<svg width="512" height="512" viewBox="0 0 512 512" fill="none" xmlns="http://www.w3.org/2000/svg">
  <rect width="512" height="512" rx="32" fill="#06111D"/>

  <rect x="82" y="74" width="348" height="364" rx="28" fill="#0B1826" stroke="#17485D" stroke-width="5"/>

  <rect x="106" y="106" width="58" height="300" rx="18" fill="#091422"/>
  <rect x="184" y="106" width="58" height="300" rx="18" fill="#091422"/>
  <rect x="262" y="106" width="58" height="300" rx="18" fill="#091422"/>
  <rect x="340" y="106" width="58" height="300" rx="18" fill="#091422"/>

  <g fill="#436A75" opacity="0.16">
    <rect x="115" y="120" width="40" height="22" rx="10"/>
    <rect x="193" y="122" width="40" height="20" rx="10"/>
    <rect x="271" y="126" width="40" height="22" rx="10"/>
    <rect x="349" y="120" width="40" height="18" rx="9"/>

    <rect x="115" y="156" width="40" height="38" rx="10"/>
    <rect x="193" y="156" width="40" height="28" rx="10"/>
    <rect x="271" y="170" width="40" height="44" rx="10"/>
    <rect x="349" y="152" width="40" height="24" rx="10"/>

    <rect x="115" y="208" width="40" height="30" rx="10"/>
    <rect x="193" y="196" width="40" height="24" rx="10"/>
    <rect x="271" y="228" width="40" height="22" rx="10"/>
    <rect x="349" y="194" width="40" height="20" rx="10"/>

    <rect x="115" y="252" width="40" height="42" rx="10"/>
    <rect x="193" y="224" width="40" height="34" rx="10"/>
    <rect x="271" y="264" width="40" height="20" rx="10"/>
    <rect x="349" y="234" width="40" height="18" rx="9"/>

    <rect x="115" y="316" width="40" height="80" rx="10"/>
    <rect x="193" y="266" width="40" height="34" rx="10"/>
    <rect x="271" y="306" width="40" height="44" rx="10"/>
    <rect x="349" y="344" width="40" height="22" rx="10"/>

    <rect x="193" y="318" width="40" height="22" rx="10"/>
    <rect x="271" y="366" width="40" height="18" rx="9"/>
    <rect x="349" y="378" width="40" height="18" rx="9"/>

    <rect x="193" y="364" width="40" height="16" rx="8"/>
  </g>

  <g fill="#9CE6D9">
    <rect x="115" y="120" width="40" height="22" rx="10"/>
    <rect x="115" y="156" width="40" height="38" rx="10"/>
    <rect x="115" y="208" width="40" height="30" rx="10"/>
    <rect x="115" y="252" width="40" height="42" rx="10"/>
    <rect x="115" y="316" width="40" height="80" rx="10"/>

    <rect x="193" y="224" width="40" height="34" rx="10"/>
    <rect x="193" y="266" width="40" height="34" rx="10"/>

    <rect x="271" y="170" width="40" height="44" rx="10"/>
    <rect x="271" y="306" width="40" height="44" rx="10"/>

    <rect x="349" y="120" width="40" height="18" rx="9"/>
    <rect x="349" y="152" width="40" height="24" rx="10"/>
    <rect x="349" y="344" width="40" height="22" rx="10"/>
    <rect x="349" y="378" width="40" height="18" rx="9"/>
  </g>
</svg>
